<svg xmlns="http://www.w3.org/2000/svg" viewBox="0 0 1600 900" fill="none">
  <rect width="1600" height="900" fill="#141414"/>
  <!-- Grid -->
  <g stroke="#222" stroke-width="1">
    <line x1="400" y1="0" x2="400" y2="900"/>
    <line x1="800" y1="0" x2="800" y2="900"/>
    <line x1="1200" y1="0" x2="1200" y2="900"/>
    <line x1="0" y1="225" x2="1600" y2="225"/>
    <line x1="0" y1="450" x2="1600" y2="450"/>
    <line x1="0" y1="675" x2="1600" y2="675"/>
  </g>
  <!-- Text lines -->
  <g fill="#282828">
    <rect x="500" y="300" width="600" height="14" rx="2"/>
    <rect x="500" y="340" width="520" height="14" rx="2"/>
    <rect x="500" y="380" width="560" height="14" rx="2"/>
    <rect x="500" y="420" width="440" height="14" rx="2"/>
    <rect x="500" y="480" width="580" height="14" rx="2"/>
    <rect x="500" y="520" width="500" height="14" rx="2"/>
    <rect x="500" y="560" width="540" height="14" rx="2"/>
  </g>
  <!-- Label -->
  <text x="800" y="720" text-anchor="middle" font-family="monospace" font-size="24" fill="#555">POST</text>
</svg>
