<svg xmlns="http://www.w3.org/2000/svg" viewBox="0 0 64 64" fill="none">
  <path
    d="M17 24.5 21.5 12 31 20h2l9.5-8 4.5 12.5"
    stroke="#171311"
    stroke-linecap="round"
    stroke-linejoin="round"
    stroke-width="3.4"
  />
  <path
    d="M16 31c0-10.2 7.2-17 16-17s16 6.8 16 17v5.8C48 47.2 40.8 54 32 54s-16-6.8-16-17.2z"
    stroke="#171311"
    stroke-linecap="round"
    stroke-linejoin="round"
    stroke-width="3.4"
  />
  <circle cx="25.5" cy="31.5" r="1.9" fill="#171311" />
  <circle cx="38.5" cy="31.5" r="1.9" fill="#171311" />
  <path
    d="M29.8 39.2c1.3 1 3.1 1 4.4 0"
    stroke="#171311"
    stroke-linecap="round"
    stroke-linejoin="round"
    stroke-width="3"
  />
  <path
    d="M25 36.5 14 34m11 3.8L14.5 39.8M39 36.5 50 34m-11 3.8 10.5 2"
    stroke="#171311"
    stroke-linecap="round"
    stroke-width="2.6"
  />
</svg>
